<?xml version="1.0" encoding="utf-8"?>
<!-- Generator: Adobe Illustrator 26.5.0, SVG Export Plug-In . SVG Version: 6.00 Build 0)  -->
<svg version="1.1" id="Layer_1" xmlns="http://www.w3.org/2000/svg" xmlns:xlink="http://www.w3.org/1999/xlink" x="0px" y="0px"
	 viewBox="0 0 2177.17 2462.53" style="enable-background:new 0 0 2177.17 2462.53;" xml:space="preserve">
<style type="text/css">
	.st0{display:none;fill:#FCB817;}
	.st1{fill:#16498D;}
	.st2{fill:#FCB817;}
</style>
<path class="st0" d="M4477.41-1672.94l-499.69-369.7c0,0-137.78,175.21-422.91,175.21s-422.91-175.21-422.91-175.21l-499.69,369.7
	c0,0-74.65,1277.46,922.59,1810.54v0l0,0l0,0v0C4552.06-395.47,4477.41-1672.94,4477.41-1672.94z"/>
<g>
	<g>
		<path class="st1" d="M1526.22,174.93l448.22,331.62c16.27,671.65-268.86,1395.31-876.44,1732.7
			c-607.75-337.47-892.48-1060.98-876.43-1732.7l448.21-331.61C897.56,389.09,1298.43,389.09,1526.22,174.93"/>
		<path class="st2" d="M1528.58,231.41l402.2,297.57c5.28,641.28-256.95,1327.81-832.79,1659.71
			C522.19,1856.8,259.84,1170.12,265.21,528.97l402.19-297.57c120.04,98.58,275.31,147.86,430.58,147.86
			C1370.47,379.27,1528.58,231.41,1528.58,231.41z M1520.9,112.53c0,0-137.78,175.21-422.91,175.21S675.09,112.53,675.09,112.53
			L175.4,482.22c0,0-74.65,1277.46,922.59,1810.54v0v0c997.24-533.07,922.59-1810.54,922.59-1810.54L1520.9,112.53L1520.9,112.53z"
			/>
	</g>
	<g>
		<polygon class="st2" points="1098.48,1792.15 1111.24,1829.02 1149.87,1830.15 1118.96,1853.56 1130.11,1891.2 1098.36,1868.75 
			1066.42,1890.94 1077.66,1853.56 1046.91,1829.86 1085.64,1829.09 		"/>
		<polygon class="st2" points="1293.83,1813.88 1306.6,1850.75 1345.38,1851.65 1314.32,1875.32 1325.66,1912.78 1293.72,1890.44 
			1261.97,1912.67 1273.05,1875.19 1242.25,1851.41 1281.02,1850.75 		"/>
		<polygon class="st2" points="903.18,1813.85 915.74,1850.83 954.48,1851.86 923.72,1875.27 934.86,1912.83 902.92,1890.46 
			870.89,1912.57 882.22,1875.27 851.46,1851.49 890.3,1850.65 		"/>
	</g>
	<g>
		<polygon class="st2" points="1010.09,1900.85 1022.65,1937.83 1061.4,1938.86 1030.63,1962.27 1041.78,1999.83 1009.84,1977.46 
			977.8,1999.57 989.14,1962.27 958.37,1938.49 997.22,1937.65 		"/>
		<polygon class="st2" points="1187.15,1900.85 1199.71,1937.83 1238.46,1938.86 1207.69,1962.27 1218.84,1999.83 1186.9,1977.46 
			1154.86,1999.57 1166.2,1962.27 1135.43,1938.49 1174.28,1937.65 		"/>
	</g>
	<polygon class="st2" points="1098.63,1993.85 1111.15,2030.85 1149.91,2031.87 1119.13,2055.3 1130.28,2092.84 1098.34,2070.48 
		1066.32,2092.6 1077.67,2055.3 1046.92,2031.54 1085.72,2030.68 	"/>
	<g>
		<polygon class="st2" points="1098.55,1597.22 1111.08,1634.38 1150.03,1635.07 1118.79,1658.72 1129.88,1696.23 1098.44,1673.91 
			1066.48,1696.14 1077.71,1658.67 1046.72,1634.79 1085.59,1634.22 		"/>
		<polygon class="st2" points="913.85,1607.23 926.37,1644.38 965.33,1645.07 934.08,1668.73 945.18,1706.24 913.73,1683.92 
			881.78,1706.14 893,1668.68 862.01,1644.8 900.89,1644.22 		"/>
		<polygon class="st2" points="1283.35,1607.23 1295.74,1644.38 1334.75,1645.07 1303.6,1668.73 1314.5,1706.24 1283.16,1683.92 
			1251.14,1706.14 1262.41,1668.68 1231.41,1644.8 1270.23,1644.22 		"/>
		<polygon class="st2" points="729.06,1617.27 741.84,1654.25 780.49,1654.86 749.66,1678.8 760.83,1716.2 728.9,1693.8 
			697.19,1716.04 708.33,1678.56 677.44,1654.86 716.3,1654.35 		"/>
		<polygon class="st2" points="1467.99,1617.26 1480.68,1654.24 1519.4,1655.14 1488.28,1678.66 1499.66,1716.22 1467.83,1693.95 
			1435.88,1716 1447.15,1678.74 1416.17,1654.85 1455.23,1654.24 		"/>
	</g>
	<g>
		<polygon class="st2" points="806.42,1726.79 819.21,1763.63 858.1,1764.51 827.08,1788.35 838.23,1825.79 806.42,1803.4 
			774.52,1825.49 785.66,1788.29 754.78,1764.38 793.71,1763.79 		"/>
		<polygon class="st2" points="1390.59,1726.81 1403.26,1763.79 1442.05,1764.82 1411.05,1788.26 1422.27,1825.79 1390.33,1803.4 
			1358.34,1825.54 1369.76,1788.26 1338.99,1764.48 1377.74,1763.63 		"/>
		<polygon class="st2" points="1195.98,1701.7 1208.57,1738.7 1247.35,1739.71 1216.57,1763.16 1227.73,1800.68 1195.72,1778.32 
			1163.72,1800.44 1175.04,1763.16 1144.31,1739.38 1183.14,1738.53 		"/>
		<polygon class="st2" points="1001.39,1701.67 1013.92,1738.65 1052.67,1739.51 1021.66,1763.45 1032.91,1800.75 1001.25,1778.3 
			969.25,1800.62 980.52,1763.24 949.6,1739.44 988.47,1738.65 		"/>
	</g>
	<g>
		<polygon class="st2" points="831.52,1508.72 844.46,1545.54 883.23,1546.33 852.25,1570.24 863.46,1607.67 831.52,1585.43 
			799.74,1607.42 810.92,1570.09 779.94,1546.22 818.82,1545.58 		"/>
		<polygon class="st2" points="1365.45,1508.76 1378.05,1545.65 1416.83,1546.68 1385.88,1570.21 1397.11,1607.62 1365.09,1585.32 
			1333.19,1607.45 1344.59,1570.21 1313.76,1546.43 1352.52,1545.45 		"/>
		<polygon class="st2" points="653.7,1518.7 666.56,1555.76 705.23,1556.79 674.4,1580.39 685.51,1617.71 653.63,1595.45 
			621.58,1617.69 633.04,1580.17 602.13,1556.43 640.88,1555.76 		"/>
		<polygon class="st2" points="1543.48,1518.84 1555.97,1555.57 1594.7,1556.55 1563.76,1580.33 1574.98,1617.58 1543.31,1595.28 
			1511.38,1617.5 1522.6,1580.2 1491.7,1556.24 1530.37,1555.57 		"/>
		<polygon class="st2" points="1009.84,1488.58 1022.3,1525.77 1061.07,1526.69 1030.05,1550.47 1041.27,1587.79 1009.51,1565.24 
			977.73,1587.69 988.8,1550.28 957.91,1526.35 996.78,1525.71 		"/>
		<polygon class="st2" points="1187.69,1488.68 1200.21,1525.76 1238.9,1526.61 1207.99,1550.36 1219.34,1587.68 1187.34,1565.23 
			1155.43,1587.68 1166.66,1550.18 1135.89,1526.48 1174.58,1525.64 		"/>
	</g>
	<g>
		<polygon class="st2" points="1617.27,1398.58 1630.04,1435.57 1669.02,1436.51 1637.95,1460.28 1648.97,1497.71 1617.27,1475.29 
			1585.43,1497.61 1596.43,1460.14 1565.76,1436.16 1604.49,1435.57 		"/>
		<polygon class="st2" points="579.35,1398.58 592.1,1435.57 631.09,1436.51 600.04,1460.28 611.02,1497.71 579.35,1475.29 
			547.51,1497.61 558.5,1460.14 527.81,1436.16 566.54,1435.57 		"/>
		<polygon class="st2" points="1444.64,1398.65 1457.1,1435.74 1495.88,1436.58 1464.95,1460.31 1476.29,1497.63 1444.29,1475.18 
			1412.43,1497.63 1423.59,1460.15 1392.92,1436.45 1431.69,1435.61 		"/>
		<polygon class="st2" points="752.27,1398.55 765.1,1435.74 804.07,1436.54 773.13,1460.23 784,1497.73 752.27,1475.18 
			720.28,1497.53 731.66,1460.23 700.81,1436.32 739.59,1435.61 		"/>
		<polygon class="st2" points="925.26,1388.55 938.09,1425.74 977.06,1426.54 946.12,1450.22 956.99,1487.72 925.26,1465.17 
			893.27,1487.53 904.65,1450.22 873.8,1426.31 912.58,1425.61 		"/>
		<polygon class="st2" points="1271.49,1388.66 1284.24,1425.77 1322.84,1426.65 1291.96,1450.34 1303.12,1487.62 1271.3,1465.3 
			1239.47,1487.59 1250.63,1450.34 1219.98,1426.38 1258.66,1425.56 		"/>
		<polygon class="st2" points="1098.66,1378.64 1111.14,1415.73 1149.9,1416.57 1118.99,1440.3 1130.28,1477.62 1098.31,1455.17 
			1066.45,1477.62 1077.6,1440.14 1046.94,1416.44 1085.72,1415.6 		"/>
	</g>
	<g>
		<polygon class="st2" points="1502.39,1265.69 1515.16,1302.66 1554.15,1303.61 1523.07,1327.38 1534.09,1364.81 1502.39,1342.39 
			1470.55,1364.71 1481.55,1327.23 1450.88,1303.26 1489.61,1302.66 		"/>
		<polygon class="st2" points="1664.03,1265.69 1676.79,1302.66 1715.78,1303.61 1684.71,1327.38 1695.73,1364.81 1664.03,1342.39 
			1632.19,1364.71 1643.19,1327.23 1612.51,1303.26 1651.25,1302.66 		"/>
		<polygon class="st2" points="532.6,1265.69 545.35,1302.66 584.33,1303.61 553.28,1327.38 564.26,1364.81 532.6,1342.39 
			500.75,1364.71 511.74,1327.23 481.05,1303.26 519.78,1302.66 		"/>
		<polygon class="st2" points="1341.12,1265.76 1353.58,1302.85 1392.36,1303.69 1361.43,1327.42 1372.77,1364.74 1340.76,1342.29 
			1308.9,1364.74 1320.07,1327.26 1289.39,1303.56 1328.16,1302.72 		"/>
		<polygon class="st2" points="694.16,1265.66 706.99,1302.85 745.96,1303.65 715.02,1327.34 725.89,1364.83 694.16,1342.29 
			662.17,1364.64 673.54,1327.34 642.7,1303.43 681.48,1302.72 		"/>
		<polygon class="st2" points="855.91,1265.71 868.36,1302.79 907.46,1303.81 876.33,1327.45 887.51,1364.79 855.78,1342.42 
			823.97,1364.79 835.1,1327.28 804.48,1303.46 843.01,1302.79 		"/>
		<polygon class="st2" points="1179.32,1265.77 1192.07,1302.87 1230.67,1303.76 1199.79,1327.44 1210.95,1364.73 1179.13,1342.41 
			1147.3,1364.7 1158.46,1327.44 1127.81,1303.48 1166.49,1302.67 		"/>
		<polygon class="st2" points="1017.84,1265.76 1030.32,1302.85 1069.08,1303.69 1038.17,1327.42 1049.46,1364.74 1017.49,1342.29 
			985.63,1364.74 996.78,1327.26 966.12,1303.56 1004.9,1302.72 		"/>
	</g>
	<g>
		<polygon class="st2" points="710.77,991.37 609.7,991.2 609.7,944.05 598.66,932.01 544.93,931.82 532.58,943.71 532.58,1123.8 
			544.41,1135.32 598.08,1135.52 609.7,1124.04 609.7,1079.46 710.77,1079.74 710.77,1160.2 651.52,1221.31 490.21,1221.31 
			431.78,1159.59 431.78,907.88 491.17,848.7 652.38,848.7 710.77,907.88 		"/>
		<path class="st2" d="M1036.6,848.7V933l-18.76-0.08l80.32,202.67h21.57v85.71H978.99v-85.71h12.16l-5.18-16.33h-97.2l-5.85,16.33
			h11.64v85.71h-140.3l0.17-85.71h21.91l81.03-202.9l-15.79-0.04V848.7H1036.6z M913.85,1048.75h46.54l-23.17-58.6L913.85,1048.75z"
			/>
		<path class="st2" d="M1451.64,1053.32v108.62l-58.96,59.37h-226.99v-84.64h22.49V933.33h-21.68l-0.04-84.62h226.97l58.22,61.3
			v94.47l-24.36,24.46L1451.64,1053.32z M1351.04,1082.4l-12.31-12.03l-50.09-0.02v66.63l50.09,0.08l12.31-11.43V1082.4z
			 M1351.04,945.52l-11.95-11.83l-50.46-0.12v53.76h50.25l12.16-11.97V945.52z"/>
		<polygon class="st2" points="1748.31,934.8 1748.31,1162.49 1689.12,1221.31 1554.9,1221.31 1496.63,1161.94 1496.63,1072.08 
			1597.38,1072.34 1597.33,1126.22 1609.32,1137.66 1635.22,1137.77 1647.58,1126.28 1647.58,934.28 1616.27,934.28 1616.27,848.7 
			1770.59,848.7 1770.59,934.7 		"/>
	</g>
	<g>
		<polygon class="st2" points="1032.08,573.65 1044.88,610.75 1083.74,611.6 1052.75,635.31 1063.78,672.83 1031.96,650.25 
			1000.22,672.47 1011.55,635.11 980.54,611.32 1019.48,610.54 		"/>
		<polygon class="st2" points="901.47,571.65 914.12,608.62 952.93,609.76 921.72,633.2 933.12,670.76 900.94,648.32 869.29,670.48 
			880.45,633.09 849.75,609.29 888.59,608.62 		"/>
		<polygon class="st2" points="508.97,567.65 521.64,604.52 560.58,605.58 529.69,629.2 540.51,666.86 508.89,644.2 477.05,666.54 
			488.22,629.12 457.3,605.29 496.06,604.52 		"/>
		<polygon class="st2" points="639.77,568.65 652.44,605.52 691.38,606.58 660.49,630.2 671.31,667.86 639.69,645.2 607.85,667.54 
			619.02,630.12 588.1,606.29 626.86,605.52 		"/>
		<polygon class="st2" points="378.17,566.65 390.84,603.52 429.78,604.58 398.89,628.2 409.71,665.86 378.09,643.2 346.25,665.54 
			357.43,628.12 326.5,604.29 365.26,603.52 		"/>
		<polygon class="st2" points="770.57,570.65 783.55,607.52 822.12,608.57 791.22,632.27 802.24,669.57 770.46,647.22 
			738.54,669.55 749.94,632.19 718.96,608.36 757.85,607.52 		"/>
		<polygon class="st2" points="1162.88,573.65 1175.68,610.75 1214.54,611.6 1183.55,635.31 1194.58,672.83 1162.76,650.25 
			1131.02,672.47 1142.35,635.11 1111.34,611.32 1150.28,610.54 		"/>
		<polygon class="st2" points="1293.68,571.65 1306.48,608.75 1345.34,609.6 1314.35,633.31 1325.38,670.83 1293.56,648.25 
			1261.82,670.47 1273.15,633.11 1242.14,609.32 1281.07,608.54 		"/>
		<polygon class="st2" points="1424.59,570.65 1411.8,607.75 1372.94,608.6 1403.93,632.32 1392.9,669.83 1424.72,647.25 
			1456.45,669.47 1445.13,632.11 1476.14,608.33 1437.2,607.54 		"/>
		<polygon class="st2" points="1555.21,568.65 1542.55,605.62 1503.74,606.76 1534.96,630.2 1523.56,667.76 1555.74,645.32 
			1587.39,667.47 1576.23,630.09 1606.93,606.29 1568.09,605.62 		"/>
		<polygon class="st2" points="1816.9,566.65 1804.23,603.52 1765.3,604.58 1796.19,628.2 1785.37,665.86 1816.99,643.2 
			1848.83,665.54 1837.65,628.12 1868.58,604.29 1829.81,603.52 		"/>
		<polygon class="st2" points="1686.1,567.65 1673.13,604.52 1634.56,605.57 1665.45,629.27 1654.44,666.57 1686.22,644.22 
			1718.14,666.55 1706.74,629.19 1737.71,605.36 1698.82,604.52 		"/>
	</g>
	<g>
		<polygon class="st2" points="672.08,321.76 684.84,358.76 723.81,359.69 692.78,383.49 703.77,420.9 672.08,398.49 640.24,420.79 
			651.19,383.33 620.55,359.37 659.29,358.76 		"/>
		<polygon class="st2" points="1524.75,321.54 1512,358.53 1473.02,359.46 1504.05,383.26 1493.07,420.67 1524.75,398.26 
			1556.59,420.56 1545.64,383.1 1576.28,359.14 1537.55,358.53 		"/>
	</g>
	<g>
		<polygon class="st2" points="494.31,436.15 506.98,473.12 545.81,474.26 514.71,497.72 525.96,535.26 493.85,512.81 
			462.13,534.99 473.34,497.62 442.62,473.79 481.48,473.12 		"/>
		<polygon class="st2" points="904.34,451.15 917.08,487.93 955.83,489 924.98,512.81 936.16,550.07 904.04,527.65 872.39,549.97 
			883.72,512.4 852.87,488.68 891.65,487.88 		"/>
		<polygon class="st2" points="1041.05,453.15 1053.8,489.93 1092.54,491 1061.7,514.81 1072.87,552.07 1040.75,529.65 
			1009.11,551.97 1020.43,514.4 989.58,490.68 1028.36,489.88 		"/>
		<polygon class="st2" points="1177.76,453.15 1190.51,489.93 1229.25,491 1198.4,514.81 1209.58,552.07 1177.47,529.65 
			1145.81,551.97 1157.14,514.4 1126.29,490.68 1165.07,489.88 		"/>
		<polygon class="st2" points="630.98,442.15 643.93,479.01 682.51,480.03 651.62,503.75 662.63,541.07 630.84,518.7 598.92,541.05 
			610.32,503.69 579.34,479.84 618.25,479.01 		"/>
		<polygon class="st2" points="767.69,448.15 780.64,485.01 819.22,486.03 788.33,509.75 799.34,547.07 767.55,524.7 735.63,547.05 
			747.03,509.69 716.05,485.84 754.96,485.01 		"/>
		<polygon class="st2" points="1724.52,436.15 1711.85,473.12 1673.02,474.26 1704.13,497.72 1692.87,535.26 1724.98,512.81 
			1756.7,534.99 1745.49,497.62 1776.21,473.79 1737.35,473.12 		"/>
		<polygon class="st2" points="1314.5,451.15 1301.75,487.93 1263,489 1293.85,512.82 1282.67,550.07 1314.79,527.65 
			1346.44,549.97 1335.12,512.4 1365.97,488.68 1327.18,487.88 		"/>
		<polygon class="st2" points="1451.21,448.15 1438.46,484.93 1399.71,486 1430.56,509.82 1419.38,547.07 1451.5,524.65 
			1483.15,546.97 1471.83,509.4 1502.68,485.68 1463.9,484.88 		"/>
		<polygon class="st2" points="1587.85,442.15 1574.91,479.01 1536.32,480.03 1567.21,503.75 1556.2,541.07 1588,518.7 
			1619.92,541.05 1608.51,503.69 1639.49,479.84 1600.58,479.01 		"/>
	</g>
	<g>
		<polygon class="st2" points="815.4,696.58 828.22,733.37 866.93,734.44 836.09,758.26 847.26,795.51 815.15,773.11 783.46,795.4 
			794.77,757.84 763.95,734.12 802.73,733.32 		"/>
		<polygon class="st2" points="674.05,696.58 686.92,733.45 725.54,734.47 694.63,758.21 705.65,795.51 673.82,773.14 
			642.06,795.49 653.3,758.11 622.37,734.28 661.23,733.45 		"/>
		<polygon class="st2" points="532.56,696.58 545.44,733.45 584.06,734.47 553.15,758.21 564.16,795.51 532.33,773.14 
			500.57,795.49 511.81,758.11 480.89,734.28 519.75,733.45 		"/>
		<polygon class="st2" points="391.2,696.58 403.9,733.61 442.64,734.64 411.74,758.21 422.63,795.51 390.94,773.27 359.09,795.36 
			370.44,758.08 339.34,734.23 378.23,733.61 		"/>
		<polygon class="st2" points="957.01,696.58 969.9,733.45 1008.51,734.46 977.61,758.21 988.6,795.51 956.79,773.14 925.04,795.49 
			936.31,758.11 905.35,734.28 944.23,733.45 		"/>
		<polygon class="st2" points="1098.5,696.58 1111.39,733.45 1149.99,734.46 1119.1,758.21 1130.08,795.51 1098.27,773.14 
			1066.53,795.49 1077.8,758.11 1046.84,734.28 1085.72,733.45 		"/>
		<polygon class="st2" points="1381.43,696.35 1368.61,733.14 1329.9,734.21 1360.74,758.03 1349.57,795.28 1381.68,772.88 
			1413.37,795.17 1402.06,757.61 1432.88,733.89 1394.1,733.09 		"/>
		<polygon class="st2" points="1522.79,696.35 1509.91,733.22 1471.29,734.25 1502.2,757.98 1491.19,795.28 1523.01,772.91 
			1554.77,795.27 1543.53,757.88 1574.46,734.05 1535.6,733.22 		"/>
		<polygon class="st2" points="1805.63,696.35 1792.93,733.38 1754.2,734.41 1785.09,757.98 1774.21,795.28 1805.89,773.04 
			1837.75,795.14 1826.39,757.85 1857.5,734 1818.6,733.38 		"/>
		<polygon class="st2" points="1664.14,696.35 1651.44,733.38 1612.71,734.41 1643.6,757.98 1632.72,795.28 1664.4,773.04 
			1696.26,795.14 1684.91,757.85 1716.01,734 1677.12,733.38 		"/>
		<polygon class="st2" points="1239.82,696.35 1226.93,733.22 1188.33,734.23 1219.22,757.98 1208.24,795.28 1240.05,772.91 
			1271.79,795.27 1260.52,757.88 1291.48,734.05 1252.6,733.22 		"/>
	</g>
</g>
</svg>
